<svg width="848" height="628" viewBox="0 0 848 628" fill="none" xmlns="http://www.w3.org/2000/svg">
<g clip-path="url(#clip0_1_8)">
<path d="M662.28 471.4C662.59 471.48 662.91 471.55 663.23 471.61C663.45 471.66 663.67 471.7 663.9 471.74C664.66 471.88 665.45 472 666.26 472.08C666.67 472.12 667.09 472.16 667.51 472.19C667.98 472.23 668.47 472.26 668.96 472.27C669.12 472.27 669.28 472.28 669.44 472.29C669.88 472.3 670.33 472.31 670.79 472.31C675.84 472.31 679.94 471.75 683.1 470.64C683.5 470.5 683.89 470.35 684.26 470.19C684.57 470.06 684.86 469.92 685.15 469.78C685.58 469.57 685.98 469.35 686.36 469.12C686.57 468.99 686.77 468.87 686.97 468.73C687.27 468.53 687.56 468.32 687.83 468.1C688.04 467.94 688.24 467.77 688.43 467.59C688.74 467.31 689.03 467.02 689.3 466.71C689.44 466.55 689.58 466.39 689.71 466.22C689.73 466.2 689.75 466.18 689.76 466.15C689.83 466.06 689.9 465.97 689.96 465.88C690.12 465.67 690.26 465.45 690.4 465.22C690.54 465 690.67 464.77 690.78 464.54C690.81 464.49 690.84 464.43 690.87 464.36C690.89 464.33 690.9 464.31 690.91 464.29C690.92 464.27 690.94 464.24 690.94 464.21C681.39 466.63 671.84 469.04 662.28 471.4ZM662.28 471.4C662.59 471.48 662.91 471.55 663.23 471.61C663.45 471.66 663.67 471.7 663.9 471.74C664.66 471.88 665.45 472 666.26 472.08C666.67 472.12 667.09 472.16 667.51 472.19C667.98 472.23 668.47 472.26 668.96 472.27C669.12 472.27 669.28 472.28 669.44 472.29C669.88 472.3 670.33 472.31 670.79 472.31C675.84 472.31 679.94 471.75 683.1 470.64C683.5 470.5 683.89 470.35 684.26 470.19C684.57 470.06 684.86 469.92 685.15 469.78C685.58 469.57 685.98 469.35 686.36 469.12C686.57 468.99 686.77 468.87 686.97 468.73C687.27 468.53 687.56 468.32 687.83 468.1C688.04 467.94 688.24 467.77 688.43 467.59C688.74 467.31 689.03 467.02 689.3 466.71C689.44 466.55 689.58 466.39 689.71 466.22C689.73 466.2 689.75 466.18 689.76 466.15C689.83 466.06 689.9 465.97 689.96 465.88C690.12 465.67 690.26 465.45 690.4 465.22C690.54 465 690.67 464.77 690.78 464.54C690.81 464.49 690.84 464.43 690.87 464.36C690.89 464.33 690.9 464.31 690.91 464.29C690.92 464.27 690.94 464.24 690.94 464.21C681.39 466.63 671.84 469.04 662.28 471.4ZM662.28 471.4C662.59 471.48 662.91 471.55 663.23 471.61C663.45 471.66 663.67 471.7 663.9 471.74C664.66 471.88 665.45 472 666.26 472.08C666.67 472.12 667.09 472.16 667.51 472.19C667.98 472.23 668.47 472.26 668.96 472.27C669.12 472.27 669.28 472.28 669.44 472.29C669.88 472.3 670.33 472.31 670.79 472.31C675.84 472.31 679.94 471.75 683.1 470.64C683.5 470.5 683.89 470.35 684.26 470.19C684.57 470.06 684.86 469.92 685.15 469.78C685.58 469.57 685.98 469.35 686.36 469.12C686.57 468.99 686.77 468.87 686.97 468.73C687.27 468.53 687.56 468.32 687.83 468.1C688.04 467.94 688.24 467.77 688.43 467.59C688.74 467.31 689.03 467.02 689.3 466.71C689.44 466.55 689.58 466.39 689.71 466.22C689.73 466.2 689.75 466.18 689.76 466.15C689.83 466.06 689.9 465.97 689.96 465.88C690.12 465.67 690.26 465.45 690.4 465.22C690.54 465 690.67 464.77 690.78 464.54C690.81 464.49 690.84 464.43 690.87 464.36C690.89 464.33 690.9 464.31 690.91 464.29C690.92 464.27 690.94 464.24 690.94 464.21C681.39 466.63 671.84 469.04 662.28 471.4ZM835.44 436.69C848.89 432.85 849.92 431.66 844.51 416.16C826.22 421.59 806.94 425.12 789.57 432.71C788.61 433.12 787.66 433.55 786.72 433.99C780.24 437.03 774.13 438.99 768.15 439.89C761.45 440.9 754.92 440.59 748.19 439.01C743.21 437.85 738.12 436 732.78 433.48C730.84 432.57 728.89 431.69 726.91 430.85C707.61 422.61 686.78 417.6 666.75 410.99C669.64 406.17 672.2 402.58 674.86 400.01C680.63 394.41 686.91 393.59 698.1 395.25C699.81 395.5 701.52 395.76 703.24 396.02C711.11 397.22 719 398.43 726.91 399.24C728.23 399.37 729.56 399.5 730.88 399.61C736.64 400.09 742.42 400.67 748.19 401.24C754.84 401.89 761.5 402.53 768.15 402.99V384.61H789.57V403.61C791.23 403.58 792.9 403.52 794.57 403.44C811.45 402.61 828.06 396.45 845.77 392.43C845.09 387.95 844.35 383.09 843.46 377.2C799.74 383.93 756.87 390.47 714.33 375.23C714.88 374.41 715.5 373.2 716.38 372.23C717.99 370.44 719.69 368.72 721.47 367.09C736.63 353.29 755.09 348.96 774.91 348.54C796.3 348.09 816.91 343.74 837.61 337.39C836.21 331.95 835.14 327.81 834.17 324.09C816.06 327.38 799.22 330.74 782.28 333.42C770.88 335.22 769.22 332.63 772.61 322.02C776.06 311.2 779.36 300.29 781.8 289.22C783.56 281.29 787.5 278.37 795.44 278.93C803.2 279.48 811.03 279.05 819.36 279.05C817.44 256.7 798.44 268.79 788.5 261.68C790.78 255.85 792.97 249.74 795.52 243.8C801.07 230.83 800.68 228.39 789.67 216.36C784.13 229.79 778.86 242.83 773.31 255.75C772.21 258.33 770.27 262.2 768.28 262.49C755.16 264.38 741.91 265.46 727.42 266.93C727.84 263.17 728.01 260.22 728.51 257.34C730.26 247.18 733.43 237.06 733.62 226.88C733.9 212.42 740.84 204.72 753.77 200.52C761.16 198.12 768.31 194.97 776.84 191.67C772.67 185.7 769.43 181.04 766.18 176.39C758.21 179.8 751.16 183.52 743.67 185.63C741.16 186.34 736.08 183.76 734.65 181.27C730.76 174.46 728.39 166.8 725.05 159.65C717.58 143.71 717.49 143.75 730.05 133.89C718.96 117.27 717.96 116.38 700.92 124.58C681.49 133.92 662.69 144.61 643.41 154.82C634.18 143.67 634.26 136.73 643.68 125.02C654.41 111.68 664.79 98.07 675.95 83.77C670.36 79.79 666.29 76.89 661.58 73.53C653.13 83.57 645.17 93.02 637.2 102.47C636.37 102.02 635.54 101.57 634.71 101.13C636.17 92.76 637.3 84.32 639.17 76.04C643.02 58.95 642.22 57.42 623.95 52.05C618.38 72.04 613.62 92.23 616.88 113.03C618.28 121.98 615.13 127.63 608.13 130.66C597.78 135.14 586.86 138.38 576.04 141.66C567.41 144.27 558.55 146.15 548.61 148.65C549.22 142.56 550.14 138.81 549.85 135.17C548.44 117.41 555.14 103.67 567.4 90.77C581.63 75.81 590.67 57.14 598.65 37.48C591.9 34.52 586.34 32.08 580.83 29.67C564.09 64.13 559.98 70.28 547.27 79.32C543.57 71.87 539.83 64.62 536.35 57.24C530.1 44.03 527.05 31.14 540.78 20.22C541.58 19.58 541.53 17.89 542.06 16.07C526.7 12.57 511.97 9.21 495.75 5.51C498.11 11 500.29 14.61 501.18 18.52C502.27 23.3 504.49 29.77 502.37 32.99C493.42 46.61 483.04 59.3 472.9 72.69C456.99 61.3 449.43 46.96 440.91 33.25C437.27 27.39 437.86 23.57 443.17 19.35C449.61 14.23 455.53 8.46 462.91 1.87C449.51 -0.550001 439.23 -1.66 430.08 6.51C424.11 11.84 418.23 7.9 413.38 4.01C404.61 -3.01 395.76 1.03 386.54 2.41C392.35 9.1 398.76 14.25 404.62 19.98C406.77 22.08 409.57 26.59 408.71 28.21C400.19 44.16 391.8 60.39 375.49 71.88C368.72 64.39 362.59 57.45 356.29 50.67C344.37 37.87 339.5 24.21 350.54 8.3C350.72 8.03 350.1 7.2 349.53 5.87C334.78 9.37 319.97 12.88 307.22 15.91C310.54 25.46 316.68 34.07 315.38 41.37C313.06 54.49 306.27 66.83 300.88 80.71C282.86 66.21 274.61 48.22 266.85 29.6C260.36 32.44 254.86 34.86 246.35 38.6C258.79 57.8 268.18 77.53 282.37 92.81C297.76 109.37 297.22 127.68 298.17 150.03C277.43 143.28 258.09 137.55 239.23 130.54C232.19 127.93 229.22 121.89 230.55 112.91C233.68 91.88 229.37 71.46 222.89 51.24C204.41 59.74 204.58 59.7 208.72 78.27C210.42 85.91 211.21 93.74 212.42 101.49C211.52 101.72 210.62 101.96 209.73 102.19C201.92 92.76 194.12 83.33 185.86 73.36C181.08 76.82 177.04 79.76 171.49 83.79C182.62 98.05 193 111.68 203.76 125.01C213.18 136.67 213.27 143.64 202.93 156.11C200.42 154.51 197.95 152.7 195.27 151.27C176.18 141.07 157.12 130.81 137.84 120.98C135.37 119.72 131.19 119.8 128.7 121.05C123.52 123.66 118.95 127.46 113.62 131.12C129.88 143.57 129.81 143.54 122.82 158.85C119.4 166.35 116.82 174.28 112.79 181.41C111.4 183.85 106.23 186.23 103.65 185.52C96.14 183.44 89.06 179.78 81.08 176.44C77.94 181.07 74.75 185.76 70.7 191.73C80.5 195.52 89.07 198.8 97.62 202.14C107.54 206.01 112.78 212.7 113.55 223.91C114.33 235.16 117.25 246.26 118.99 257.46C119.47 260.55 119.06 263.78 119.06 266.91C106.65 265.61 95.41 264.05 84.11 263.39C77.91 263.03 75.57 260.47 73.51 254.68C68.89 241.7 62.93 229.19 57.2 215.76C48.59 225.66 45.39 234.27 52.3 245.01C55.61 250.15 56.76 256.67 58.48 261.43C48.04 268.67 29.56 256.86 28.36 279.01C36.77 279.01 44.67 279.42 52.52 278.89C60.07 278.39 63.86 281.2 65.51 288.68C67.82 299.09 70.73 309.39 73.97 319.55C78.41 333.42 76.95 335.54 62.55 333.08C46.34 330.32 30.2 327.13 13.12 323.95C12.07 328.2 11.02 332.42 9.25004 339.55C31.11 342.65 52.13 345.31 73.03 348.73C85.83 350.82 99.02 352.59 110.94 357.29C119.7 360.75 126.67 368.72 134.61 374.81C89.98 390.33 47.25 383.87 3.80004 377.18C3.45004 379.89 3.13004 382.33 2.84004 384.61C2.65004 386.06 2.47004 387.44 2.30004 388.76C2.12004 390.11 1.95004 391.4 1.79004 392.66C2.81004 392.88 3.83004 393.11 4.84004 393.34C14.4 395.47 23.39 397.73 32.32 399.47H32.33C34.95 399.98 37.56 400.45 40.18 400.85C46.17 401.77 52.24 402.77 58.31 403.45L66.9 384.61H91.18L80.88 403.82C88.61 403.19 96.32 402.35 104.03 401.4C119.28 399.52 134.5 397.21 149.73 395.12C165.74 392.93 172.5 396.26 180.49 410.78C176.25 412.22 171.99 413.61 167.72 414.98C150.88 420.4 133.87 425.52 117.49 432.11C114.54 433.29 111.61 434.53 108.7 435.82C105.14 437.41 101.76 438.64 98.48 439.49C88.12 442.21 78.69 441.27 67.33 436.46C66.26 436.01 65.18 435.56 64.1 435.13C58.4 432.83 52.59 430.78 46.7 428.88C46.56 428.83 46.42 428.79 46.28 428.74C37.7 425.98 28.96 423.52 20.2 421.04C14.08 419.3 7.94004 417.55 1.84004 415.66C-0.393298 427.447 3.0467 434.427 12.16 436.6C17.52 437.87 23.02 438.8 28.17 440.67C29.39 441.11 30.61 441.56 31.83 442.02C40.22 445.14 48.55 448.46 56.89 451.76C59.24 452.68 61.59 453.61 63.94 454.53C63.77 456.17 63.6 457.8 63.43 459.44L56.89 460.73C49.76 462.13 42.63 463.54 35.47 464.95C24.46 467.12 13.38 469.3 2.19004 471.5C3.06004 478.19 3.87004 484.45 5.10004 493.9C15.45 491.09 25.54 488.36 35.47 485.67C42.68 483.71 49.81 481.78 56.89 479.86C64.63 477.78 72.32 475.71 80.02 473.66C83.86 472.64 88.31 470.85 91.73 471.88C94 472.57 96.24 473.34 98.48 474.17C103.53 476.05 108.56 478.24 113.79 480.45C115.38 481.12 116.99 481.79 118.63 482.45C116.73 483.58 114.82 484.67 112.91 485.71C112.03 486.19 111.15 486.66 110.27 487.12C78.1 503.9 43.79 508.48 8.03004 505.59C8.39004 520.01 8.49004 519.14 21.04 520.65C58.33 525.15 93.58 517.81 125.93 500.13C147.92 488.11 168.8 487.83 191.15 496C193.74 496.94 196.42 497.62 199.04 498.46C221.28 505.57 243.72 505.69 266.46 501.04C270.88 500.13 275.9 500.76 280.36 501.82C299.77 506.45 318.97 511.93 338.44 516.25C353.96 519.69 368.34 525.22 379.26 536.9C383.02 540.91 385.77 547.29 386.15 552.78C387.11 566.85 386.48 581.04 386.5 595.18C386.53 614 381.97 620.68 364.27 627.34L474.78 623.15C465.35 618.1 459.74 611.15 460.73 599.16C461.83 585.8 462.08 572.16 460.67 558.86C459.26 545.5 464.73 536.52 475.31 530.82C486.07 525.02 497.72 520.74 509.25 516.51C514.66 514.52 520.82 514.65 526.43 513.06C553.76 505.34 580.71 497.66 609.99 503.6C620.48 505.73 632.41 501.68 643.52 499.58C652.28 497.92 660.82 495.01 669.41 492.48C684.14 488.14 697.78 488.65 712.14 496.1C751.14 516.34 792.15 528.08 837.5 518.64C837.89 517.42 838.82 515.22 839.27 512.93C839.66 510.96 839.52 508.89 839.66 505.59C803.61 508.29 769.21 504.14 737.29 487.12C734.42 485.6 731.58 483.98 728.76 482.24C735.67 479.57 741.98 477.03 748.19 474.71C750.39 473.88 752.57 473.09 754.77 472.32C757.15 471.48 760.18 471.21 762.56 471.9C764.43 472.44 766.29 472.99 768.15 473.56C781.11 477.49 793.94 481.87 807.04 485.24C809.78 485.94 812.54 486.56 815.33 487.12C824.21 488.9 833.39 490.13 843.04 491.86C843.76 483.64 844.32 477.28 844.83 471.34C843.33 471.05 841.83 470.76 840.34 470.47C837.26 469.87 834.21 469.28 831.17 468.69C817.03 465.95 803.28 463.28 789.57 460.62C787.66 460.25 785.74 459.88 783.83 459.51C783.77 457.36 783.72 455.22 783.67 453.08C785.64 452.45 787.6 451.82 789.57 451.18C804.83 446.23 820.04 441.1 835.44 436.69ZM609.28 418.31C606.75 406.84 604.52 396.78 601.64 383.76C616.42 385.33 627.43 386.5 638.44 387.67C638.8 388.62 639.15 389.56 639.51 390.51C629.93 399.32 620.35 408.13 609.28 418.31ZM764.83 281.49C766.02 282.61 767.21 283.72 768.4 284.84C762.72 294.34 758.72 305.57 751.02 312.98C733.47 329.89 714.41 345.29 695.38 360.57C684.33 369.44 671.97 372.1 657.72 366.17C646.56 361.52 634.34 359.39 622.21 353.67C629.06 350.14 635.76 346.28 642.78 343.13C661.43 334.77 678.48 324.42 693.59 310.24C713.45 291.61 739.33 286.6 764.83 281.49ZM701.22 148.38C705.86 161.97 710.28 173.86 713.75 186.01C714.38 188.24 711.66 193.54 709.62 194.08C688.68 199.56 667.58 204.45 646.47 209.25C642.53 210.15 638.35 209.92 632.5 210.34C643.8 175.73 672.48 163.09 701.22 148.38ZM628.93 234.24C655.98 227.78 683.17 221.89 712.05 215.45C716.87 233.86 712.64 251.06 701.51 265.64C693.94 275.56 683.91 284.22 673.48 291.2C651.22 306.09 627.99 319.52 602.63 335.1C602.63 325.35 601.02 316.5 602.98 308.53C606.43 294.57 612.37 281.23 616.66 267.45C619.29 258.98 620.46 250.07 622.99 241.56C623.84 238.7 626.45 234.83 628.93 234.24ZM559.76 175.83C578.9 169.28 597.62 161.49 619.97 152.85C618.09 170.16 617.18 185.87 614.45 201.25C612.54 212 606.06 219.39 593.78 221.23C582.95 222.85 572.44 226.61 561.8 229.43C556.61 230.81 552.8 229.92 552.42 223.61C551.71 211.92 550.83 200.24 550.44 188.54C550.22 182.18 552.75 178.23 559.76 175.83ZM558.23 277.52C562.84 257.85 572.12 249.69 594.95 247.3C592.62 257.11 590.73 266.41 588.19 275.53C582.11 297.38 574.28 318.88 570.07 341.08C567.94 352.38 565.36 361.11 555.23 366.77C553.75 367.6 552.54 368.91 551.23 370.04C531.59 386.88 521.29 395.7 510.09 402.47C504.25 406.01 498.16 408.99 490.36 412.24C481.71 415.86 470.96 419.83 456.12 425.32C456.12 420.57 454.96 416.04 456.37 412.54C457.73 409.16 459.2 405.68 460.95 402.41C462.63 399.26 464.57 396.31 466.92 393.83C469.81 390.78 472.68 387.7 475.56 384.61C488.01 371.29 500.54 357.94 514.78 346.85C538.17 328.63 551.66 305.55 558.23 277.52ZM525.4 196.98C524.81 206.59 522.43 216.36 523.5 225.76C525.03 239.31 519.15 246.16 507.92 251.95C487.64 262.41 466.48 271.93 452.36 291.83C450.14 270.13 449.95 249.39 459.25 229.8C465.63 216.36 476.66 207.86 489.91 201.92C501.16 196.88 512.44 191.94 524.91 186.42C525.09 189.93 525.61 193.48 525.4 196.98ZM527.33 272.8C524.97 287.66 519.27 298.75 510.34 308.03C492.28 326.8 473.91 345.28 455.67 363.88C454.73 363.51 453.78 363.14 452.83 362.77C452.83 350 452.72 337.22 452.96 324.46C453 322.7 454.47 320.61 455.86 319.3C476.43 299.81 500.83 286.31 527.33 272.8ZM510.26 61.86C523.34 83.22 531.27 102.06 526.04 127.86C521.31 151.19 510.74 162.58 490.3 170.81C476.3 176.45 464.02 186.37 450.81 194.47C462.1 147.46 474.4 100.18 510.26 61.86ZM322.7 89.52C325.42 80.46 330.95 72.24 335.99 62.17C370.91 100.79 393.73 143.27 396.06 195.4C381.03 177.29 359.29 171.16 339.5 162.07C330.56 157.96 326.33 152.13 324.97 142.81C323.68 134.01 320.33 125.4 319.89 116.6C319.44 107.6 320.13 98.09 322.7 89.52ZM397.61 291.31C395.14 291.31 394.16 291.57 393.95 291.27C379.28 270.73 356.63 261.27 335.66 249.63C327.31 244.99 323.23 239.79 323.99 229.55C324.75 219.36 322.71 208.97 322.06 198.66C321.82 194.68 322.02 190.67 322.02 185.97C332.13 190.58 340.02 194.94 348.41 197.86C380.78 209.14 395.89 232.65 397.55 265.88C397.97 274.35 397.61 282.85 397.61 291.31ZM391.01 318.74C392.83 320.44 394.46 323.33 394.53 325.72C394.88 337.95 394.69 350.2 393.45 363.03C369.39 333.2 330.63 315.88 319.08 272.33C346.4 286.13 370.51 299.63 391.01 318.74ZM229.52 152.77C236.98 156.08 243.1 158.99 249.37 161.54C259.89 165.81 270.39 170.18 281.11 173.92C297.08 179.49 297.67 179.85 297.12 197.18C296.92 203.37 296.05 209.53 295.55 215.7C294.27 231.67 293.84 232.02 278.11 227.95C268.13 225.36 257.71 223.67 248.4 219.52C242.77 217.01 237.07 211.39 234.58 205.76C227.32 189.37 228.75 171.75 229.52 152.77ZM244.11 394.03C243.58 396.73 242.93 399.4 242.2 402.11C240.88 407.08 239.3 412.19 237.76 417.86C235.8 416.07 233.88 414.31 231.98 412.59C226.73 407.78 221.68 403.17 216.72 398.64C213.82 395.99 210.95 393.36 208.08 390.74C208.48 389.68 208.89 388.62 209.29 387.56C218.12 386.64 226.95 385.78 235.77 384.77C235.9 384.76 236.01 384.74 236.14 384.74C243.09 384.08 245.26 388.14 244.1 394.03H244.11ZM224.4 239.41C229.08 254.77 233.57 270.2 237.44 285.77C240.74 299 243.31 312.42 245.76 325.84C246.2 328.22 244.49 331 243.41 334.9C235 329.33 227.52 324.12 219.8 319.29C202.29 308.34 184.36 298.02 167.15 286.61C147.12 273.32 135.07 254.68 133.61 230.19C133.31 225.27 134.46 220.26 134.93 215.38C164.14 221.88 191.32 227.82 218.41 234.12C220.75 234.67 223.73 237.19 224.4 239.41ZM145.36 150.49C170.42 153.01 208.04 185.09 214.63 212.25C186.27 205.52 159.82 199.24 131.23 192.45C136.1 177.99 140.73 164.24 145.36 150.49ZM93.27 309.47C86.58 303.27 83.92 292.73 80.74 282.97C107.44 286.36 133.05 291.14 152.62 309.28C169.13 324.58 187.64 335.71 207.9 344.68C213.75 347.27 219.29 350.58 224.97 353.57C224.83 354.42 224.69 355.28 224.56 356.13C209.1 360.56 193.82 365.97 178.08 368.94C171.76 370.13 162.93 367.85 157.82 363.85C135.67 346.51 113.88 328.6 93.27 309.47ZM386.48 493.4C375.36 491.1 364.58 489.15 354.06 487.12C344.16 485.22 334.49 483.24 324.99 480.85C322.34 480.19 319.7 479.49 317.08 478.75C309.59 476.64 302.76 472.96 296.81 468.14C295.15 470.88 293.2 473.4 290.99 475.72C282.32 485.13 271.19 489.83 257.6 489.83C249.35 489.83 242.4 488.09 236.74 484.62C235.83 484.07 234.88 483.4 233.9 482.62C230.69 482.64 227.5 482.41 224.33 481.97C221.57 481.6 218.83 481.06 216.11 480.4C213.83 479.85 211.56 479.28 209.28 478.7C200.68 476.53 192.12 474.2 183.58 471.76C176.25 469.67 168.95 467.49 161.65 465.24C149.79 461.6 137.95 457.78 126.09 453.87C129.12 452.22 132.18 450.67 135.25 449.22C137.22 448.28 139.2 447.39 141.19 446.53C151.19 442.22 161.4 438.9 171.85 436.54C179.01 434.91 186.29 433.74 193.68 433.02C195.67 432.82 197.66 432.65 199.67 432.52C202.82 432.31 206.53 433.59 209.28 435.31C209.34 435.35 209.39 435.38 209.45 435.42C216.52 439.97 223.55 444.56 230.65 449.22C241.17 456.14 251.81 463.2 262.84 470.48C266.86 469.23 270.59 467.03 274.03 463.89C277.56 460.67 280.01 456.06 281.37 450.06C273.67 437.01 270.06 421.33 271.99 406.21C272.62 401.3 273.83 396.44 275.68 391.76C280.92 396 286.14 399.7 290.77 404.03C293.96 407.01 297.2 409.91 300.49 412.72C308.34 419.42 316.49 425.6 325 431.18V394.87C315.98 388.55 307.38 381.43 299.1 373.57C286.41 361.52 277.84 350.75 275.75 332.34C273.59 313.18 264.91 294.8 259.42 275.98C256.75 266.85 254.85 257.51 252.51 247.89C272.25 248.19 285.09 258.05 288.65 274.98C294.9 304.76 309.37 328.53 333.81 347.77C347.52 358.57 359.6 371.53 371.43 384.67C375.56 389.24 379.64 393.83 383.76 398.37C389.8 405.01 394.72 413.57 390.92 423.94C390.34 423.81 389.76 423.68 389.18 423.54C389.7 426.92 389.96 430.68 389.96 434.82C389.96 442.38 388.87 448.89 386.69 454.36C385.86 456.43 384.9 458.29 383.81 459.93C385.08 461.42 386 463.11 386.14 464.53C386.79 470.82 386.72 477.18 386.61 483.72C386.55 486.9 386.49 490.12 386.49 493.4H386.48ZM413.65 134.17C409.89 123.9 405.28 113.79 399.76 104.36C395.95 97.85 396.57 93.61 401.13 88.01C408.86 78.52 415.72 68.32 423.88 57.12C433.02 69.89 441.46 81.45 449.56 93.25C450.66 94.85 450.89 97.97 450.12 99.81C440.81 121.99 431.23 144.06 422.42 164.55C420.05 156.14 417.58 144.89 413.65 134.17ZM552.92 466.2H552.91L545.88 487.12H523.48L525.85 480.47C524.45 480.82 523.02 481.13 521.56 481.41C518.45 482 515.34 482.59 512.22 483.18C505.44 484.47 498.64 485.79 491.77 487.12C481.98 489.02 472.06 490.96 461.86 492.94C461.44 488.85 461.07 485.46 460.73 482.07C458.57 460.13 458.85 459.45 479.24 452.47C481.05 451.85 482.84 451.2 484.62 450.53H484.63C491.05 448.12 497.28 445.38 503.33 442.34C519.18 434.36 533.76 424.28 547.25 412.28C548.67 411.02 550.1 409.76 551.54 408.51C557.89 402.98 564.49 397.45 571.79 391.18C575.79 401.56 577.06 411.35 576.02 420.84C575.38 426.73 573.86 432.49 571.55 438.2C570.11 441.77 568.51 445.17 566.73 448.38C562.98 455.17 558.47 461.1 553.09 466.05C553.03 466.11 552.98 466.16 552.92 466.2ZM721.5 456.54C718.56 457.27 715.63 458 712.69 458.74C705.44 460.54 698.19 462.38 690.94 464.21C681.39 466.63 671.84 469.04 662.28 471.4C653.79 473.5 645.3 475.56 636.79 477.55C630.77 478.96 624.73 480.33 618.69 481.66C618.68 481.66 618.66 481.67 618.65 481.67C609.96 483.56 602.34 482.67 595.04 479.75C590.65 477.99 586.37 475.5 582.05 472.44C585.01 470.43 587.94 468.41 590.86 466.39C596.89 462.2 602.85 458.01 608.82 453.92C617.59 447.91 626.39 442.09 635.48 436.79C636.72 436.07 638.08 435.46 639.53 434.96C645.58 432.86 653.13 432.61 659.18 433.86C676.69 437.47 693.93 442.4 711.21 447.11C714.67 448.06 718.14 448.99 721.61 449.91C721.58 452.12 721.54 454.33 721.51 456.54H721.5ZM662.28 471.4C662.59 471.48 662.91 471.55 663.23 471.61C663.45 471.66 663.67 471.7 663.9 471.74C664.66 471.88 665.45 472 666.26 472.08C666.67 472.12 667.09 472.16 667.51 472.19C667.98 472.23 668.47 472.26 668.96 472.27C669.12 472.27 669.28 472.28 669.44 472.29C669.88 472.3 670.33 472.31 670.79 472.31C675.84 472.31 679.94 471.75 683.1 470.64C683.5 470.5 683.89 470.35 684.26 470.19C684.57 470.06 684.86 469.92 685.15 469.78C685.58 469.57 685.98 469.35 686.36 469.12C686.57 468.99 686.77 468.87 686.97 468.73C687.27 468.53 687.56 468.32 687.83 468.1C688.04 467.94 688.24 467.77 688.43 467.59C688.74 467.31 689.03 467.02 689.3 466.71C689.44 466.55 689.58 466.39 689.71 466.22C689.73 466.2 689.75 466.18 689.76 466.15C689.83 466.06 689.9 465.97 689.96 465.88C690.12 465.67 690.26 465.45 690.4 465.22C690.54 465 690.67 464.77 690.78 464.54C690.81 464.49 690.84 464.43 690.87 464.36C690.89 464.33 690.9 464.31 690.91 464.29C690.92 464.27 690.94 464.24 690.94 464.21C681.39 466.63 671.84 469.04 662.28 471.4ZM662.28 471.4C662.59 471.48 662.91 471.55 663.23 471.61C663.45 471.66 663.67 471.7 663.9 471.74C664.66 471.88 665.45 472 666.26 472.08C666.67 472.12 667.09 472.16 667.51 472.19C667.98 472.23 668.47 472.26 668.96 472.27C669.12 472.27 669.28 472.28 669.44 472.29C669.88 472.3 670.33 472.31 670.79 472.31C675.84 472.31 679.94 471.75 683.1 470.64C683.5 470.5 683.89 470.35 684.26 470.19C684.57 470.06 684.86 469.92 685.15 469.78C685.58 469.57 685.98 469.35 686.36 469.12C686.57 468.99 686.77 468.87 686.97 468.73C687.27 468.53 687.56 468.32 687.83 468.1C688.04 467.94 688.24 467.77 688.43 467.59C688.74 467.31 689.03 467.02 689.3 466.71C689.44 466.55 689.58 466.39 689.71 466.22C689.73 466.2 689.75 466.18 689.76 466.15C689.83 466.06 689.9 465.97 689.96 465.88C690.12 465.67 690.26 465.45 690.4 465.22C690.54 465 690.67 464.77 690.78 464.54C690.81 464.49 690.84 464.43 690.87 464.36C690.89 464.33 690.9 464.31 690.91 464.29C690.92 464.27 690.94 464.24 690.94 464.21C681.39 466.63 671.84 469.04 662.28 471.4ZM662.28 471.4C662.59 471.48 662.91 471.55 663.23 471.61C663.45 471.66 663.67 471.7 663.9 471.74C664.66 471.88 665.45 472 666.26 472.08C666.67 472.12 667.09 472.16 667.51 472.19C667.98 472.23 668.47 472.26 668.96 472.27C669.12 472.27 669.28 472.28 669.44 472.29C669.88 472.3 670.33 472.31 670.79 472.31C675.84 472.31 679.94 471.75 683.1 470.64C683.5 470.5 683.89 470.35 684.26 470.19C684.57 470.06 684.86 469.92 685.15 469.78C685.58 469.57 685.98 469.35 686.36 469.12C686.57 468.99 686.77 468.87 686.97 468.73C687.27 468.53 687.56 468.32 687.83 468.1C688.04 467.94 688.24 467.77 688.43 467.59C688.74 467.31 689.03 467.02 689.3 466.71C689.44 466.55 689.58 466.39 689.71 466.22C689.73 466.2 689.75 466.18 689.76 466.15C689.83 466.06 689.9 465.97 689.96 465.88C690.12 465.67 690.26 465.45 690.4 465.22C690.54 465 690.67 464.77 690.78 464.54C690.81 464.49 690.84 464.43 690.87 464.36C690.89 464.33 690.9 464.31 690.91 464.29C690.92 464.27 690.94 464.24 690.94 464.21C681.39 466.63 671.84 469.04 662.28 471.4Z" fill="#B5493B"/>
<path d="M77.94 404.06C71.47 404.55 64.89 404.18 58.31 403.45L46.7 428.88L46.53 429.26L46.28 428.74L32.33 399.47H32.32L25.24 384.61H0L2.3 388.76L4.84 393.34L20.2 421.04L31.83 442.02L35.47 448.59V487.12H56.89V448.59L64.1 435.13L80.88 403.82C79.9 403.91 78.92 403.99 77.94 404.06Z" fill="#212226"/>
<path d="M91.1801 384.61L80.8801 403.82C79.9001 403.91 78.9201 403.99 77.9401 404.06C71.4701 404.55 64.8901 404.18 58.3101 403.45L66.9001 384.61H91.1801Z" fill="#B5493B"/>
<path d="M300.48 412.72C298.22 406.8 295.01 401.54 290.85 396.99C281.71 386.97 269.63 381.97 254.61 381.97C247.74 381.97 241.59 382.89 236.15 384.74C231.27 386.37 226.95 388.75 223.22 391.88C220.72 393.97 218.56 396.22 216.73 398.64C212.79 403.86 210.41 409.85 209.62 416.6H230.7C231.03 415.18 231.46 413.84 231.99 412.59C233.98 407.82 237.39 404.33 242.21 402.11C242.34 402.04 242.46 401.99 242.59 401.93C246.11 400.4 250.03 399.63 254.34 399.63C261.26 399.63 267.14 401.82 271.99 406.21C272.93 407.05 273.83 407.97 274.69 408.98C280 415.22 282.65 424.6 282.65 437.12C282.65 441.98 282.22 446.3 281.37 450.06C285.44 456.99 290.67 463.17 296.82 468.14C301.98 459.71 304.56 449.3 304.56 436.91C304.56 427.87 303.2 419.81 300.49 412.72H300.48ZM254.4 471.75C247.22 471.75 241.33 469.68 236.74 465.53C232.15 461.38 229.32 455.94 228.25 449.22H251.97V432.11H209.27V487.12H223.45L224.32 481.97L225.61 474.32C228.59 477.83 231.35 480.6 233.89 482.62C244.42 482.55 255.2 479.77 266.23 472.73C265.09 471.98 263.95 471.23 262.82 470.48C260.14 471.33 257.33 471.75 254.39 471.75H254.4Z" fill="#212226"/>
<path d="M296.81 468.14C295.15 470.88 293.2 473.4 290.99 475.72C282.32 485.13 271.19 489.83 257.6 489.83C249.35 489.83 242.4 488.09 236.74 484.62C235.83 484.07 234.88 483.4 233.9 482.62C244.43 482.55 255.21 479.77 266.24 472.73C265.1 471.98 263.96 471.23 262.83 470.48C266.85 469.23 270.58 467.03 274.02 463.89C277.55 460.67 280 456.06 281.36 450.06C285.43 456.99 290.66 463.17 296.81 468.14Z" fill="#B5493B"/>
<path d="M114.82 474.33L112.66 487.13H98.47V432.12H141.17V449.23H117.45C118.52 455.95 121.34 461.39 125.93 465.54C130.52 469.69 136.41 471.76 143.6 471.76C150.79 471.76 157.46 469.14 163.21 463.9C168.96 458.66 171.83 449.74 171.83 437.12C171.83 424.5 169.18 415.22 163.87 408.99C158.56 402.75 151.78 399.64 143.53 399.64C139.22 399.64 135.3 400.41 131.78 401.93C125.48 404.71 121.51 409.6 119.89 416.6H98.82C99.98 406.72 104.51 398.48 112.42 391.88C120.33 385.27 130.79 381.97 143.82 381.97C158.84 381.97 170.92 386.98 180.05 396.99C189.18 407 193.75 420.31 193.75 436.91C193.75 453.51 189.23 466.26 180.19 475.72C171.52 485.13 160.39 489.84 146.81 489.84C138.56 489.84 131.6 488.1 125.95 484.62C122.66 482.63 118.95 479.2 114.82 474.33Z" fill="#212226"/>
<path d="M409.77 416.39C408.47 410.46 406.04 404.94 402.47 399.84C398.02 393.53 392.2 389.2 385.01 386.83C381.31 385.61 376.78 384.89 371.42 384.67C370.69 384.64 369.93 384.62 369.16 384.61H324.99V394.87C331.67 399.56 338.58 403.8 345.79 407.56V402.41H365.54C375.28 402.41 381.79 405.19 385.08 410.76C387.04 414.14 388.41 418.4 389.17 423.54C389.69 426.92 389.95 430.68 389.95 434.82C389.95 442.38 388.86 448.89 386.68 454.36C385.85 456.43 384.89 458.29 383.8 459.93C379.64 466.19 373.55 469.32 365.54 469.32H345.79V443.2C338.62 439.6 331.69 435.57 324.99 431.18V487.12H369.16C375.69 487.12 381.51 485.99 386.6 483.72C393.59 480.61 399.23 475.37 403.51 468C408.98 458.54 411.72 446.99 411.72 433.36C411.72 427.98 411.07 422.33 409.77 416.39Z" fill="#212226"/>
<path d="M389.95 434.82C389.95 442.38 388.86 448.89 386.68 454.36C385.85 456.43 384.89 458.29 383.8 459.93C382.35 458.21 380.45 456.76 378.79 456.27C367.21 452.86 356.24 448.47 345.79 443.2C338.62 439.6 331.69 435.57 324.99 431.18V394.87C331.67 399.56 338.58 403.8 345.79 407.56C359.16 414.57 373.51 419.97 389.17 423.54C389.69 426.92 389.95 430.68 389.95 434.82Z" fill="#B5493B"/>
<path d="M471.4 446.92H449.28V487.12H428.35V384.61H478.63C485.82 384.75 491.35 385.63 495.22 387.25C499.09 388.87 502.37 391.26 505.06 394.41C507.29 397.01 509.05 399.88 510.35 403.03C511.65 406.18 512.3 409.78 512.3 413.81C512.3 418.68 511.07 423.47 508.61 428.17C506.15 432.88 502.1 436.2 496.44 438.15C501.17 440.05 504.52 442.75 506.49 446.25C508.46 449.75 509.45 455.09 509.45 462.28V469.17C509.45 473.85 509.64 477.03 510.01 478.7C510.57 481.34 511.86 483.29 513.9 484.54V487.11H490.32C489.67 484.84 489.21 483.01 488.93 481.62C488.37 478.75 488.07 475.8 488.03 472.79L487.89 463.26C487.8 456.72 486.6 452.36 484.31 450.19C482.02 448.01 477.71 446.92 471.41 446.92H471.4ZM484.4 428.28C488.67 426.33 490.8 422.48 490.8 416.74C490.8 410.53 488.74 406.35 484.61 404.22C482.29 403.01 478.81 402.41 474.18 402.41H449.28V429.95H473.55C478.37 429.95 481.99 429.39 484.4 428.28Z" fill="#212226"/>
<path d="M618.64 481.67L608.81 453.92L584.27 384.61H560.07L551.54 408.51L525.85 480.47C536.65 477.78 545.59 472.91 552.91 466.21H552.92L552.97 466.05H590.74L590.85 466.39L595.03 479.75L597.34 487.12H620.57L618.64 481.67ZM558.74 448.38L571.96 408.05L576.02 420.84L584.76 448.38H558.74Z" fill="#212226"/>
<path d="M552.91 466.21L545.88 487.12H523.48L525.85 480.47C536.65 477.78 545.59 472.91 552.91 466.21Z" fill="#B5493B"/>
<path d="M670.79 472.31C675.84 472.31 679.95 471.75 683.1 470.64C689.08 468.51 692.07 464.54 692.07 458.75C692.07 455.37 690.59 452.75 687.62 450.89C684.65 449.08 679.99 447.48 673.64 446.09L662.79 443.66C652.12 441.25 644.75 438.63 640.67 435.8C633.76 431.07 630.31 423.68 630.31 413.61C630.31 404.43 633.65 396.8 640.32 390.73C647 384.66 656.8 381.62 669.74 381.62C680.54 381.62 689.76 384.48 697.38 390.21C705.01 395.94 709.01 404.25 709.38 415.14H688.79C688.42 408.97 685.73 404.59 680.72 402C677.38 400.29 673.23 399.43 668.27 399.43C662.75 399.43 658.35 400.54 655.06 402.77C651.77 405 650.12 408.1 650.12 412.09C650.12 415.75 651.74 418.49 654.99 420.3C657.08 421.51 661.53 422.92 668.34 424.54L686.01 428.78C693.75 430.63 699.59 433.12 703.54 436.22C709.66 441.04 712.72 448.02 712.72 457.15C712.72 466.28 709.14 474.29 701.97 480.48C694.81 486.67 684.69 489.76 671.61 489.76C658.53 489.76 647.75 486.71 640.1 480.61C632.45 474.51 628.62 466.13 628.62 455.47H649.07C649.72 460.15 650.99 463.65 652.9 465.97C656.38 470.19 662.33 472.3 670.77 472.3L670.79 472.31Z" fill="#212226"/>
<path d="M726.91 384.61H748.19V487.12H726.91V384.61Z" fill="#212226"/>
<path d="M789.57 468.69V403.61C782.45 403.75 775.3 403.48 768.15 402.99V487.12H840.34V468.69H789.57Z" fill="#212226"/>
<path d="M789.57 384.61V403.61C782.45 403.75 775.3 403.48 768.15 402.99V384.61H789.57Z" fill="#B5493B"/>
</g>
<defs>
<clipPath id="clip0_1_8">
<rect width="847.57" height="627.34" fill="white"/>
</clipPath>
</defs>
</svg>
